<svg width="118" height="128" viewBox="0 0 118 128" fill="none" xmlns="http://www.w3.org/2000/svg">
<path d="M57.7626 52.2374C58.446 52.9209 59.554 52.9209 60.2374 52.2374L71.3744 41.1005C72.0578 40.4171 72.0578 39.309 71.3744 38.6256C70.691 37.9422 69.5829 37.9422 68.8995 38.6256L59 48.5251L49.1005 38.6256C48.4171 37.9422 47.309 37.9422 46.6256 38.6256C45.9422 39.309 45.9422 40.4171 46.6256 41.1005L57.7626 52.2374ZM59 0L57.25 0V51H59H60.75V0L59 0Z" fill="black"/>
<line y1="60.25" x2="118" y2="60.25" stroke="black" stroke-width="3.5"/>
<path d="M60.2374 71.7626C59.554 71.0791 58.446 71.0791 57.7626 71.7626L46.6256 82.8995C45.9422 83.5829 45.9422 84.691 46.6256 85.3744C47.309 86.0578 48.4171 86.0578 49.1005 85.3744L59 75.4749L68.8995 85.3744C69.5829 86.0578 70.691 86.0578 71.3744 85.3744C72.0578 84.691 72.0578 83.5829 71.3744 82.8995L60.2374 71.7626ZM59 128L60.75 128L60.75 73L59 73L57.25 73L57.25 128L59 128Z" fill="black"/>
</svg>
